<?xml version="1.0" encoding="iso-8859-1"?>
<!-- Uploaded to: SVG Repo, www.svgrepo.com, Generator: SVG Repo Mixer Tools -->
<!DOCTYPE svg PUBLIC "-//W3C//DTD SVG 1.1//EN" "http://www.w3.org/Graphics/SVG/1.1/DTD/svg11.dtd">
<svg fill="#000000" version="1.1" id="Capa_1" xmlns="http://www.w3.org/2000/svg" xmlns:xlink="http://www.w3.org/1999/xlink" 
	 width="800px" height="800px" viewBox="0 0 439.998 439.999"
	 xml:space="preserve">
<g>
	<g>
		<g>
			<path d="M324.669,233.754H293.24c-10.524,62.336-64.883,109.973-130.163,109.973c-72.792,0-132.015-59.217-132.015-132.01
				c0-72.792,59.223-132.014,132.015-132.014c65.28,0,119.641,47.637,130.163,109.979h31.415
				c-10.789-79.536-79.134-141.041-161.578-141.041C73.154,48.641,0,121.793,0,211.717C0,263,23.496,310.305,64.469,341.507
				l-26.764,43.119c-0.844,1.356-0.885,3.065-0.106,4.467c0.777,1.396,2.254,2.264,3.85,2.264h41.503
				c1.521,0,2.938-0.789,3.74-2.082l16.15-26.016c19.184,7.653,39.449,11.535,60.235,11.535c20.781,0,41.046-3.882,60.232-11.535
				l16.146,26.016c0.803,1.293,2.222,2.082,3.746,2.082H284.7c1.601,0,3.076-0.867,3.854-2.264c0.774-1.4,0.732-3.107-0.107-4.467
				l-26.763-43.119C296.709,314.836,318.946,276.391,324.669,233.754z"/>
			<path d="M163.077,158.475c21.497,0,40.051,12.818,48.446,31.207h32.931c-9.714-35.834-42.515-62.27-81.377-62.27
				c-46.486,0-84.306,37.819-84.306,84.305c0,46.487,37.819,84.306,84.306,84.306c38.861,0,71.661-26.437,81.377-62.269h-32.932
				c-8.396,18.388-26.949,31.205-48.445,31.205c-29.359,0-53.243-23.886-53.243-53.243
				C109.834,182.358,133.718,158.475,163.077,158.475z"/>
			<path d="M439.729,256.948l-11.068-45.229l11.166-45.624c0.758-3.099-1.185-6.223-4.789-7.695
				c-3.608-1.477-8.038-0.96-10.923,1.271l-34.495,26.676l4.957-20.251c0.76-3.099-1.185-6.223-4.789-7.695
				c-3.607-1.477-8.038-0.96-10.924,1.271l-50.203,38.823H171.893c-7.302,0-13.226,5.924-13.226,13.226
				c0,7.303,5.924,13.222,13.226,13.222H328.66l50.203,38.823c1.785,1.383,4.169,2.104,6.581,2.104c0.062,0,0.132,0,0.195,0
				c5.053-0.077,9.109-3.267,9.109-7.188c0-0.597-0.094-1.177-0.271-1.731l-4.86-19.858l34.495,26.675
				c1.784,1.383,4.168,2.104,6.58,2.104c0.062,0,0.131,0,0.195,0c5.049-0.078,9.109-3.268,9.109-7.188
				C440,258.083,439.906,257.504,439.729,256.948z"/>
		</g>
	</g>
</g>
</svg>